PathFileType	4	(X/Y/Z)	D:\TRACE\spot_10-12-23\spot_arm_body_motion_1_4-platform.trc
DataRate	CameraRate	NumFrames	NumMarkers	Units	OrigDataRate	OrigDataStartFrame	OrigNumFrames
100.00	100.00	      48	5	mm	100.00	1751	      7000
Frame#	Time	Left_Front			Right_Front			Left_Aft			Right_Aft			Post			
		X1	Y1	Z1	X2	Y2	Z2	X3	Y3	Z3	X4	Y4	Z4	X5	Y5	Z5	

1751	17.500	-763.38336	-15.64449	-657.60162	804.00195	-17.19443	-632.64276	-691.72064	28.80811	480.23303	718.11230	31.88241	580.41040	39.13855	703.87329	-996.79022	
1752	17.510	-762.43671	-15.56104	-657.59363	804.83472	-17.24012	-632.68066	-691.11676	28.89856	480.15884	719.08148	31.77550	580.42645	40.13277	703.83618	-996.46771	
1753	17.520	-761.53674	-15.85441	-657.40930	805.71967	-17.34085	-632.71771	-690.42035	28.93582	480.14972	719.67480	31.65174	580.38977	40.86695	703.57159	-996.23633	
1754	17.530	-760.77118	-15.95608	-657.37189	806.53546	-17.49371	-632.69708	-689.38123	28.60382	480.28394	720.58398	31.33434	580.46252	41.41432	703.60413	-996.61725	
1755	17.540	-759.84241	-15.98650	-657.42584	807.65314	-17.44219	-632.64056	-688.44049	28.67081	480.24057	721.65961	31.54795	580.61469	42.80285	703.64453	-995.85968	
1756	17.550	-758.79138	-15.75599	-657.40692	808.51367	-17.49299	-632.62756	-687.27838	28.85035	480.24542	722.60516	31.83436	580.51660	43.83241	703.72778	-995.73199	
1757	17.560	-757.86157	-15.70249	-657.50311	809.46277	-17.20613	-632.65851	-686.57123	28.95497	480.19608	723.60034	31.96200	580.45062	44.27627	703.75616	-995.98083	
1758	17.570	-757.11029	-15.68623	-657.39130	810.38257	-17.37568	-632.63416	-685.77911	28.88423	480.25317	724.41602	31.79783	580.41302	44.86050	703.66577	-996.28900	
1759	17.580	-756.35101	-15.95592	-657.28418	811.08447	-17.48897	-632.61078	-684.77130	28.68000	480.16843	725.17920	31.51606	580.54541	46.10958	703.50232	-996.37537	
1760	17.590	-755.34412	-16.05805	-657.39728	811.90436	-17.39174	-632.70776	-684.06476	28.56265	480.23981	726.11469	31.53812	580.65100	47.26165	703.52026	-995.87976	
1761	17.600	-754.21387	-16.00701	-657.35394	812.89532	-17.40902	-632.69464	-682.92163	28.63534	480.29196	726.95923	31.71782	580.50580	47.92553	703.66431	-996.04492	
1762	17.610	-753.55450	-15.62460	-657.26880	813.74591	-17.27942	-632.57355	-682.03644	28.67496	480.30615	727.80835	31.71226	580.43829	48.95850	703.87750	-996.32758	
1763	17.620	-752.82141	-15.50646	-657.22223	814.69019	-17.24895	-632.44977	-681.36133	28.74927	480.37982	728.76447	31.54945	580.46313	49.83379	703.88934	-996.46063	
1764	17.630	-751.97601	-15.73971	-657.39661	815.48560	-17.28363	-632.43756	-680.56091	28.58470	480.36713	729.45874	31.32379	580.54810	50.48804	703.81268	-996.42841	
1765	17.640	-750.81274	-16.13313	-657.48615	816.20618	-17.35424	-632.49091	-679.84161	28.41335	480.27954	730.09991	31.22325	580.56433	51.26303	703.87280	-996.24377	
1766	17.650	-750.19128	-15.72672	-657.12354	817.11389	-17.26298	-632.35706	-678.92920	28.48628	480.29855	731.12219	31.40143	580.60486	52.28659	704.14386	-996.03656	
1767	17.660	-749.50940	-15.20862	-657.13495	817.81329	-17.23492	-632.25580	-677.93756	28.48295	480.39877	732.00354	31.52718	580.57452	53.06112	704.30511	-996.04901	
1768	17.670	-748.63263	-15.16259	-657.17297	818.63055	-17.07972	-632.12439	-677.28979	28.67841	480.45676	732.83557	31.25861	580.66266	53.93322	704.49866	-995.81866	
1769	17.680	-747.89978	-15.40335	-657.20929	819.39899	-17.28517	-632.10016	-676.54449	28.55499	480.55405	733.63940	31.11451	580.67017	54.26291	704.49597	-995.97937	
1770	17.690	-747.08368	-15.66016	-657.00525	820.10883	-17.37650	-632.12305	-675.67004	28.02479	480.65137	734.26050	30.89893	580.72052	55.05836	704.63867	-995.63904	
1771	17.700	-746.32428	-15.29421	-656.95105	820.91620	-17.07253	-632.12390	-674.89917	27.76001	480.63507	735.02808	30.71358	580.85437	56.17470	704.94745	-994.97882	
1772	17.710	-745.53412	-14.69697	-656.98230	821.71155	-16.84192	-632.09259	-674.23615	27.91852	480.71732	735.78461	30.81927	580.96851	57.01566	705.30621	-994.60181	
1773	17.720	-744.90015	-14.50008	-657.01636	822.85730	-15.91005	-632.13226	-673.34161	27.92938	480.77774	736.65686	30.90444	581.02753	57.43185	705.63281	-994.64374	
1774	17.730	-744.24554	-14.37888	-656.99536	823.34576	-15.84120	-632.09821	-672.62665	27.81299	480.86404	737.39868	30.63104	581.06195	58.35951	705.91772	-994.07861	
1775	17.740	-743.59222	-14.31752	-656.96381	823.89209	-15.95180	-632.06750	-672.09802	27.70888	480.89575	737.88464	30.25270	581.07849	58.92232	706.03290	-993.76172	
1776	17.750	-742.77301	-14.31239	-656.87213	824.54218	-15.85647	-632.07990	-671.50665	27.42880	480.82898	738.49500	30.18406	581.10736	59.51395	706.15533	-993.55957	
1777	17.760	-742.07727	-14.08256	-656.83887	825.41461	-15.44770	-632.01733	-670.69073	27.19919	480.84619	739.33899	30.13678	581.19019	60.20190	706.39752	-993.57379	
1778	17.770	-741.52350	-13.76039	-656.80524	826.17407	-15.06429	-631.99689	-669.97614	27.12801	480.94003	740.04517	30.21404	581.20819	60.86708	706.76270	-993.64355	
1779	17.780	-741.02185	-13.33664	-656.65027	826.70099	-14.79498	-631.98218	-669.31635	27.22429	481.03937	740.71332	30.08188	581.26569	61.40118	707.16028	-993.55823	
1780	17.790	-740.44666	-13.24233	-656.70569	827.29651	-14.65884	-631.92047	-668.76843	27.05741	481.10977	741.35608	29.87100	581.30988	61.83445	707.36523	-993.38586	
1781	17.800	-739.89539	-13.23597	-656.71875	827.80963	-14.64085	-631.86389	-668.26715	26.86753	481.15256	741.83197	29.61181	581.34930	62.46435	707.57440	-993.25476	
1782	17.810	-738.83929	-13.47318	-656.69763	828.41937	-14.54318	-631.90436	-667.73358	26.72940	481.21652	742.25922	29.49878	581.35376	62.96879	707.67590	-993.12219	
1783	17.820	-738.35333	-13.25317	-656.51074	829.09528	-14.20642	-631.79681	-667.21472	26.75154	481.20370	742.85687	29.45037	581.45129	63.77781	707.97772	-992.79364	
1784	17.830	-737.96619	-12.80826	-656.46106	829.64862	-14.01075	-631.75922	-666.54132	26.74845	481.23264	743.58246	29.42045	581.53571	64.86374	708.23199	-992.10168	
1785	17.840	-737.46454	-12.59908	-656.43250	830.13464	-13.86553	-631.68439	-666.02460	26.64844	481.26144	744.09198	29.17759	581.58966	65.08793	708.44543	-991.91901	
1786	17.850	-737.07147	-12.55205	-656.44952	830.58356	-13.74551	-631.58081	-665.62177	26.39670	481.28796	744.37549	28.92622	581.60065	65.53675	708.57123	-991.61554	
1787	17.860	-736.58777	-12.51527	-656.56299	830.98737	-13.65871	-631.56433	-665.19598	26.20055	481.38181	744.77692	28.79283	581.71851	65.95389	708.80603	-991.38971	
1788	17.870	-736.02051	-12.34415	-656.52991	831.53735	-13.44559	-631.48389	-664.65778	26.04363	481.44739	745.30939	28.68015	581.77893	66.18266	709.13977	-991.61407	
1789	17.880	-735.51337	-11.98162	-656.37689	832.03723	-13.10881	-631.53491	-664.02832	25.94767	481.56479	746.00989	28.58569	581.86237	66.79887	709.65179	-991.26068	
1790	17.890	-735.19360	-11.67561	-656.25110	832.34521	-12.89976	-631.59326	-663.59222	25.80414	481.63702	746.35840	28.47597	581.92291	67.32185	710.04376	-990.76550	
1791	17.900	-734.86133	-11.57018	-656.05963	832.65399	-12.72613	-631.49310	-663.30249	25.64091	481.70111	746.62793	28.17586	581.95459	67.69926	710.32385	-990.41333	
1792	17.910	-734.56592	-11.43266	-656.00342	832.92572	-12.57358	-631.37891	-663.11731	25.43334	481.70969	746.85217	27.86028	582.04828	68.04066	710.60120	-990.16718	
1793	17.920	-734.27716	-11.08395	-656.03107	833.35315	-12.23047	-631.25903	-662.95154	25.27524	481.74454	747.04199	27.70961	582.18231	68.23339	711.00415	-989.83148	
1794	17.930	-733.88000	-10.75013	-655.97205	833.71796	-11.91110	-631.15656	-662.63080	25.10713	481.84467	747.43359	27.56757	582.19818	68.17625	711.67810	-990.03784	
1795	17.940	-733.68030	-10.26831	-655.90979	834.03290	-11.64509	-631.13324	-662.26855	24.98726	481.91452	747.85022	27.41331	582.20850	68.37387	712.11249	-989.60950	
1796	17.950	-733.49579	-9.97257	-655.83282	834.23444	-11.42115	-631.07703	-662.00128	24.75315	482.04434	748.09851	27.14646	582.34424	68.67628	712.41180	-989.04578	
1797	17.960	-733.38300	-9.77359	-655.75629	834.35034	-11.21162	-631.06622	-661.75989	24.49267	482.15057	748.22223	26.90171	582.43542	70.60352	712.82013	-987.19397	
1798	17.970	-733.18744	-9.64593	-655.76575	834.40558	-10.96160	-631.06427	-661.58807	24.32249	482.19458	748.34167	26.75294	582.47614	69.34432	712.95935	-987.77045	
